<svg width="89" height="18" viewBox="0 0 89 18" fill="none" xmlns="http://www.w3.org/2000/svg">
<path d="M18.3262 0.822635C16.2253 -0.489964 13.4596 -0.177236 10.9929 1.37269C8.53393 -0.177236 5.76651 -0.489964 3.66824 0.822635C0.349042 2.89692 -0.0545049 8.23899 2.76775 12.7551C4.84803 16.0846 8.10126 18.0355 10.9972 17.9995C13.8931 18.0355 17.1464 16.0846 19.2266 12.7551C22.0455 8.23899 21.6454 2.89692 18.3262 0.822635ZM4.29369 11.8015C3.71175 10.879 3.27268 9.87373 2.99137 8.81989C2.74145 7.90509 2.64589 6.95501 2.70863 6.00877C2.83458 4.33975 3.51402 3.04 4.62098 2.34857C5.72795 1.65715 7.19135 1.61516 8.74984 2.23376C8.98375 2.32715 9.21508 2.43511 9.4447 2.5542C8.57865 3.34388 7.82558 4.24917 7.20677 5.24451C5.49319 7.98624 4.97055 11.0373 5.56859 13.4697C5.09174 12.9553 4.66485 12.3967 4.29369 11.8015ZM19.0039 8.81903C18.7222 9.87275 18.2831 10.8779 17.7016 11.8007C17.3301 12.3967 16.9032 12.9564 16.4267 13.4722C16.9613 11.2917 16.598 8.62026 15.2871 6.11501C15.2662 6.07375 15.2368 6.03734 15.2009 6.00814C15.1651 5.97894 15.1234 5.95759 15.0788 5.94548C15.0341 5.93336 14.9874 5.93076 14.9417 5.93782C14.896 5.94489 14.8522 5.96147 14.8133 5.98649L10.7265 8.53972C10.6892 8.56298 10.6569 8.59336 10.6313 8.62913C10.6058 8.6649 10.5876 8.70535 10.5777 8.74816C10.5679 8.79098 10.5665 8.83532 10.5738 8.87865C10.5811 8.92198 10.5969 8.96344 10.6202 9.00067L11.22 9.95942C11.2431 9.99666 11.2734 10.029 11.3091 10.0545C11.3448 10.08 11.3852 10.0982 11.4279 10.1081C11.4707 10.1179 11.515 10.1193 11.5582 10.112C11.6015 10.1047 11.6429 10.089 11.6801 10.0657L14.3292 8.41035C14.4149 8.66738 14.5006 8.92442 14.5649 9.18145C14.8147 10.0951 14.9106 11.044 14.8485 11.9891C14.7225 13.6573 14.0431 14.9571 12.9361 15.6493C12.3651 15.9984 11.7109 16.1878 11.0417 16.1977H10.9569C10.2877 16.188 9.63345 15.9986 9.06257 15.6493C7.95474 14.9571 7.27531 13.6573 7.14936 11.9891C7.087 11.0429 7.18255 10.0929 7.4321 9.17803C8.00631 7.06144 9.19326 5.16177 10.8438 3.71772C11.5556 3.09294 12.3663 2.59087 13.2428 2.23205C14.797 1.61345 16.263 1.65458 17.3708 2.34686C18.4787 3.03914 19.1572 4.33803 19.2832 6.00706C19.3467 6.95339 19.2524 7.9037 19.0039 8.81903ZM40.0997 6.82529C37.9509 6.82529 36.2142 8.50288 36.2142 10.6371C36.2142 12.7568 37.9509 14.407 40.0997 14.407C42.2631 14.407 43.9998 12.7594 43.9998 10.6371C43.9998 8.50373 42.2657 6.82614 40.0997 6.82614V6.82529ZM40.0997 12.4141C39.1092 12.4141 38.3553 11.613 38.3553 10.6226C38.3553 9.63212 39.1092 8.81903 40.0997 8.81903C41.1047 8.81903 41.8587 9.63469 41.8587 10.6251C41.8587 11.6156 41.1047 12.4175 40.0997 12.4175V12.4141ZM48.8449 3.89764H44.8909C44.8481 3.89683 44.8057 3.90465 44.7661 3.92065C44.7265 3.93665 44.6905 3.96048 44.6603 3.99073C44.6301 4.02098 44.6064 4.05702 44.5905 4.09668C44.5746 4.13634 44.5669 4.1788 44.5678 4.22151V13.8612C44.5648 13.9054 44.5709 13.9497 44.5857 13.9913C44.6006 14.033 44.624 14.0711 44.6543 14.1033C44.6847 14.1355 44.7213 14.1611 44.762 14.1784C44.8028 14.1957 44.8466 14.2044 44.8909 14.2039H48.8449C52.009 14.2039 54.2076 12.0997 54.2076 9.03837C54.2076 5.95822 52.009 3.89764 48.8449 3.89764ZM48.9383 12.1682H46.7749V5.92823H48.9383C50.6896 5.92823 51.8968 7.23826 51.8968 9.03409C51.8968 10.7999 50.6896 12.1682 48.9383 12.1682ZM62.078 7.03263H60.5915C60.5092 7.03914 60.4322 7.07579 60.3753 7.13555C60.3184 7.19532 60.2855 7.274 60.283 7.3565V7.79774C59.9446 7.23826 59.1795 6.82614 58.2267 6.82614C56.3727 6.82614 54.636 8.28268 54.636 10.6089C54.636 12.9222 56.3572 14.4053 58.2122 14.4053C59.1684 14.4053 59.9489 13.994 60.2873 13.4345V13.8904C60.2878 13.9721 60.3204 14.0504 60.3781 14.1083C60.4358 14.1662 60.514 14.199 60.5958 14.1997H62.0823C62.1232 14.2006 62.1638 14.1932 62.2018 14.178C62.2397 14.1628 62.2742 14.1401 62.3031 14.1112C62.332 14.0822 62.3548 14.0478 62.37 14.0098C62.3852 13.9719 62.3925 13.9312 62.3916 13.8904V7.3565C62.3929 7.31449 62.3857 7.27266 62.3705 7.23347C62.3553 7.19428 62.3324 7.15853 62.3032 7.12834C62.274 7.09815 62.239 7.07412 62.2003 7.05768C62.1616 7.04125 62.12 7.03273 62.078 7.03263ZM58.62 12.4304C57.6356 12.4304 56.8962 11.6738 56.8962 10.6243C56.8962 9.57472 57.6356 8.81903 58.62 8.81903C59.6045 8.81903 60.3439 9.57386 60.3439 10.6234C60.3439 11.673 59.6053 12.4295 58.62 12.4295V12.4304ZM70.4223 3.89764H68.9357C68.8941 3.89639 68.8527 3.90343 68.8138 3.91836C68.775 3.93329 68.7395 3.95581 68.7094 3.9846C68.6793 4.01339 68.6553 4.04787 68.6387 4.08605C68.6221 4.12422 68.6133 4.16532 68.6127 4.20695V7.76861C68.27 7.23826 67.4938 6.82614 66.523 6.82614C64.6826 6.82614 62.9759 8.28268 62.9759 10.6089C62.9759 12.9222 64.6972 14.4053 66.5522 14.4053C67.5083 14.4053 68.2297 13.994 68.6273 13.4345V13.8904C68.6275 13.9722 68.6601 14.0506 68.7178 14.1085C68.7756 14.1664 68.8539 14.1992 68.9357 14.1997H70.4223C70.4632 14.2007 70.5039 14.1934 70.5419 14.1783C70.5799 14.1631 70.6144 14.1404 70.6433 14.1114C70.6723 14.0825 70.695 14.048 70.7102 14.01C70.7253 13.972 70.7326 13.9313 70.7316 13.8904V4.20866C70.7329 4.16761 70.7258 4.12673 70.7107 4.08852C70.6956 4.05031 70.6729 4.01559 70.644 3.98647C70.615 3.95735 70.5804 3.93445 70.5423 3.91917C70.5042 3.9039 70.4633 3.89657 70.4223 3.89764ZM66.9643 12.4484C65.9841 12.4484 65.2507 11.6841 65.2507 10.6234C65.2507 9.56272 65.9867 8.79847 66.9643 8.79847C67.9419 8.79847 68.6778 9.56272 68.6778 10.6234C68.6778 11.6841 67.9453 12.4484 66.9643 12.4484ZM78.7648 3.89764H77.2808C77.2392 3.89639 77.1977 3.90343 77.1588 3.91835C77.1199 3.93326 77.0844 3.95577 77.0542 3.98455C77.0241 4.01332 77 4.04781 76.9833 4.08599C76.9666 4.12417 76.9576 4.16528 76.957 4.20695V7.76861C76.6186 7.23826 75.838 6.82614 74.8673 6.82614C73.0269 6.82614 71.3202 8.28268 71.3202 10.6089C71.3202 12.9222 73.0423 14.4053 74.8964 14.4053C75.8534 14.4053 76.574 13.994 76.9715 13.4345V13.8904C76.972 13.9722 77.0047 14.0507 77.0626 14.1086C77.1205 14.1665 77.199 14.1992 77.2808 14.1997H78.7648C78.8057 14.2007 78.8463 14.1934 78.8843 14.1783C78.9222 14.1631 78.9567 14.1403 78.9856 14.1114C79.0145 14.0824 79.0371 14.0479 79.0522 14.0099C79.0673 13.9719 79.0744 13.9312 79.0732 13.8904V4.20866C79.0747 4.16765 79.0677 4.12679 79.0527 4.08858C79.0377 4.05038 79.0151 4.01564 78.9862 3.98651C78.9573 3.95737 78.9228 3.93446 78.8847 3.91918C78.8466 3.9039 78.8058 3.89657 78.7648 3.89764ZM75.3068 12.4484C74.3258 12.4484 73.5932 11.6841 73.5932 10.6234C73.5932 9.56272 74.3292 8.79847 75.3068 8.79847C76.2844 8.79847 77.0204 9.56272 77.0204 10.6234C77.0204 11.6841 76.2895 12.4484 75.3094 12.4484H75.3068ZM86.9043 7.53385L84.6861 15.1413C84.2577 16.495 83.3023 17.3047 81.8158 17.3047C81.1398 17.3047 80.5246 17.1667 80.0423 16.8908C79.7612 16.7306 79.5282 16.5841 79.5282 16.3493C79.5282 16.2037 79.5753 16.1283 79.661 15.9921L80.1014 15.3323C80.2256 15.1481 80.3173 15.0881 80.451 15.0881C80.5569 15.0907 80.6593 15.1264 80.744 15.1901C81.0207 15.3692 81.2778 15.5234 81.6693 15.5234C82.1268 15.5234 82.4764 15.3769 82.6649 14.832L82.8551 14.2005H81.9572C81.8652 14.2035 81.7752 14.1741 81.7026 14.1177C81.63 14.0612 81.5794 13.9811 81.5596 13.8912L79.5745 7.53385C79.5008 7.28367 79.5685 7.03349 79.936 7.03349H81.4997C81.6907 7.03349 81.8244 7.0986 81.9083 7.37192L83.3743 12.4912L84.7452 7.37192C84.7889 7.19542 84.9071 7.03349 85.1427 7.03349H86.6258C86.918 7.03263 87.0062 7.23826 86.9043 7.53385ZM35.6538 9.79663V13.8604C35.6545 13.9047 35.6463 13.9487 35.6297 13.9897C35.613 14.0308 35.5883 14.0681 35.557 14.0994C35.5257 14.1307 35.4884 14.1554 35.4473 14.1721C35.4062 14.1887 35.3623 14.1969 35.318 14.1962H34.091C34.0467 14.197 34.0027 14.1889 33.9616 14.1723C33.9204 14.1557 33.8831 14.131 33.8517 14.0997C33.8204 14.0683 33.7957 14.031 33.7791 13.9899C33.7625 13.9487 33.7544 13.9047 33.7552 13.8604V12.7937C32.9764 13.7773 31.6218 14.3967 30.0898 14.3967C27.2128 14.3967 24.9645 12.2325 24.9645 9.15147C24.9645 5.94965 27.3918 3.74257 30.4583 3.74257C32.7219 3.74257 34.5314 4.71588 35.3351 6.67364C35.3576 6.72537 35.3701 6.7809 35.3719 6.83728C35.3719 6.92982 35.3111 7.00007 35.1149 7.06776L33.6824 7.61953C33.5959 7.65536 33.4991 7.65689 33.4116 7.62381C33.3349 7.57852 33.2748 7.50972 33.2403 7.42761C32.7262 6.45001 31.8111 5.786 30.4026 5.786C28.5759 5.786 27.2676 7.21256 27.2676 9.06236C27.2676 10.8556 28.3814 12.3301 30.4548 12.3301C31.5455 12.3301 32.4152 11.8161 32.8204 11.2515H31.5267C31.4824 11.2521 31.4384 11.2439 31.3973 11.2273C31.3563 11.2107 31.319 11.186 31.2876 11.1546C31.2563 11.1233 31.2316 11.086 31.215 11.0449C31.1983 11.0039 31.1901 10.9599 31.1908 10.9156V9.81119C31.1901 9.7669 31.1983 9.72291 31.215 9.68185C31.2316 9.64079 31.2563 9.60348 31.2876 9.57216C31.319 9.54083 31.3563 9.51612 31.3973 9.49948C31.4384 9.48285 31.4824 9.47464 31.5267 9.47533H35.318C35.3614 9.47311 35.4049 9.4798 35.4457 9.49497C35.4865 9.51014 35.5237 9.53349 35.5552 9.56357C35.5866 9.59365 35.6116 9.62984 35.6285 9.66992C35.6455 9.70999 35.6541 9.75311 35.6538 9.79663ZM86.9445 5.52811V5.42958C86.9445 5.42267 86.9469 5.41597 86.9514 5.41073C86.9564 5.40635 86.9628 5.40391 86.9694 5.40388H87.5957C87.599 5.40377 87.6023 5.40431 87.6054 5.40549C87.6085 5.40667 87.6113 5.40845 87.6137 5.41073C87.6182 5.41597 87.6207 5.42267 87.6206 5.42958V5.52811C87.6205 5.53474 87.6181 5.54113 87.6137 5.5461C87.6113 5.54839 87.6085 5.55017 87.6054 5.55135C87.6023 5.55252 87.599 5.55307 87.5957 5.55296H87.367V6.1707C87.3667 6.17745 87.364 6.18387 87.3592 6.18864C87.3544 6.19342 87.348 6.19619 87.3412 6.19641H87.223C87.2198 6.19639 87.2166 6.1957 87.2136 6.19437C87.2107 6.19304 87.208 6.19111 87.2059 6.1887C87.2034 6.18637 87.2015 6.18358 87.2002 6.18049C87.1989 6.1774 87.1982 6.17407 87.1982 6.1707V5.55296H86.9694C86.9661 5.55322 86.9627 5.55275 86.9596 5.55159C86.9565 5.55043 86.9536 5.54861 86.9513 5.54625C86.9489 5.54389 86.9471 5.54105 86.9459 5.53792C86.9448 5.53479 86.9443 5.53144 86.9445 5.52811ZM88.0395 5.42615L88.2109 5.82285L88.3822 5.42615C88.3849 5.41913 88.3897 5.41312 88.396 5.40902C88.4031 5.40533 88.4111 5.40355 88.4191 5.40388H88.6179C88.6211 5.40363 88.6244 5.40408 88.6275 5.40519C88.6305 5.4063 88.6333 5.40804 88.6357 5.4103C88.638 5.41257 88.6398 5.41531 88.6411 5.41833C88.6423 5.42136 88.6428 5.42461 88.6427 5.42787V6.17156C88.643 6.17481 88.6425 6.17808 88.6414 6.18115C88.6403 6.18421 88.6385 6.18701 88.6363 6.18936C88.634 6.19171 88.6313 6.19355 88.6283 6.19476C88.6252 6.19598 88.622 6.19654 88.6187 6.19641H88.5073C88.504 6.19652 88.5007 6.19597 88.4976 6.19479C88.4946 6.19362 88.4917 6.19183 88.4893 6.18955C88.4869 6.18726 88.4851 6.18445 88.4839 6.18133C88.4827 6.17822 88.4822 6.17488 88.4825 6.17156V5.61036L88.2983 6.01819C88.2956 6.02589 88.2909 6.03271 88.2846 6.0379C88.2775 6.0418 88.2695 6.04359 88.2614 6.04304H88.1706C88.1629 6.04347 88.1551 6.04169 88.1483 6.0379C88.1418 6.03295 88.137 6.02605 88.1346 6.01819L87.9513 5.61036V6.17156C87.9515 6.1748 87.951 6.17804 87.9499 6.18109C87.9487 6.18413 87.947 6.18691 87.9447 6.18924C87.9425 6.19158 87.9398 6.19342 87.9368 6.19465C87.9338 6.19589 87.9305 6.19648 87.9273 6.19641H87.8133C87.8102 6.19637 87.807 6.19568 87.8041 6.1944C87.8012 6.19311 87.7986 6.19125 87.7965 6.18893C87.7943 6.18661 87.7926 6.18387 87.7915 6.18088C87.7905 6.1779 87.79 6.17473 87.7902 6.17156V5.42787C87.7901 5.42461 87.7906 5.42136 87.7919 5.41833C87.7931 5.41531 87.7949 5.41257 87.7972 5.4103C87.7996 5.40804 87.8024 5.4063 87.8055 5.40519C87.8085 5.40408 87.8118 5.40363 87.815 5.40388H88.0078C88.0156 5.40366 88.0232 5.40543 88.0301 5.40902C88.0348 5.41372 88.0381 5.41967 88.0395 5.42615Z" fill="black"/>
</svg>
